<mxfile host="app.diagrams.net" modified="2023-07-05T19:14:18.756Z" agent="Mozilla/5.0 (Macintosh; Intel Mac OS X 10_15_7) AppleWebKit/537.36 (KHTML, like Gecko) Chrome/114.0.0.0 Safari/537.36" etag="2COI7QOdwlna2O6AYRrB" version="21.4.0" type="device">
  <diagram id="C5RBs43oDa-KdzZeNtuy" name="Page-1">
    <mxGraphModel dx="1114" dy="627" grid="1" gridSize="10" guides="1" tooltips="1" connect="1" arrows="1" fold="1" page="1" pageScale="1" pageWidth="827" pageHeight="1169" math="0" shadow="0">
      <root>
        <mxCell id="WIyWlLk6GJQsqaUBKTNV-0" />
        <mxCell id="WIyWlLk6GJQsqaUBKTNV-1" parent="WIyWlLk6GJQsqaUBKTNV-0" />
        <mxCell id="-NSmCLizPUfjTM3Ec8pr-0" value="" style="shape=table;startSize=0;container=1;collapsible=0;childLayout=tableLayout;" vertex="1" parent="WIyWlLk6GJQsqaUBKTNV-1">
          <mxGeometry x="130" y="245" width="110" height="40" as="geometry" />
        </mxCell>
        <mxCell id="-NSmCLizPUfjTM3Ec8pr-1" value="" style="shape=tableRow;horizontal=0;startSize=0;swimlaneHead=0;swimlaneBody=0;strokeColor=inherit;top=0;left=0;bottom=0;right=0;collapsible=0;dropTarget=0;fillColor=none;points=[[0,0.5],[1,0.5]];portConstraint=eastwest;" vertex="1" parent="-NSmCLizPUfjTM3Ec8pr-0">
          <mxGeometry width="110" height="40" as="geometry" />
        </mxCell>
        <mxCell id="-NSmCLizPUfjTM3Ec8pr-2" value="EMPLOYEE" style="shape=partialRectangle;html=1;whiteSpace=wrap;connectable=0;strokeColor=inherit;overflow=hidden;fillColor=none;top=0;left=0;bottom=0;right=0;pointerEvents=1;" vertex="1" parent="-NSmCLizPUfjTM3Ec8pr-1">
          <mxGeometry width="110" height="40" as="geometry">
            <mxRectangle width="110" height="40" as="alternateBounds" />
          </mxGeometry>
        </mxCell>
        <mxCell id="-NSmCLizPUfjTM3Ec8pr-3" value="DEPARTMENT" style="whiteSpace=wrap;html=1;" vertex="1" parent="WIyWlLk6GJQsqaUBKTNV-1">
          <mxGeometry x="630" y="240" width="120" height="40" as="geometry" />
        </mxCell>
        <mxCell id="-NSmCLizPUfjTM3Ec8pr-4" value="WORKS_FOR" style="rhombus;whiteSpace=wrap;html=1;" vertex="1" parent="WIyWlLk6GJQsqaUBKTNV-1">
          <mxGeometry x="400" y="120" width="120" height="120" as="geometry" />
        </mxCell>
        <mxCell id="-NSmCLizPUfjTM3Ec8pr-5" value="" style="shape=link;html=1;rounded=0;exitX=1.024;exitY=0.114;exitDx=0;exitDy=0;exitPerimeter=0;entryX=0;entryY=0.5;entryDx=0;entryDy=0;" edge="1" parent="WIyWlLk6GJQsqaUBKTNV-1" source="-NSmCLizPUfjTM3Ec8pr-1" target="-NSmCLizPUfjTM3Ec8pr-4">
          <mxGeometry width="100" relative="1" as="geometry">
            <mxPoint x="360" y="320" as="sourcePoint" />
            <mxPoint x="460" y="320" as="targetPoint" />
          </mxGeometry>
        </mxCell>
        <mxCell id="-NSmCLizPUfjTM3Ec8pr-6" value="Fname" style="ellipse;whiteSpace=wrap;html=1;" vertex="1" parent="WIyWlLk6GJQsqaUBKTNV-1">
          <mxGeometry x="60" y="55" width="70" height="40" as="geometry" />
        </mxCell>
        <mxCell id="-NSmCLizPUfjTM3Ec8pr-7" value="Lname" style="ellipse;whiteSpace=wrap;html=1;" vertex="1" parent="WIyWlLk6GJQsqaUBKTNV-1">
          <mxGeometry x="210" y="55" width="70" height="40" as="geometry" />
        </mxCell>
        <mxCell id="-NSmCLizPUfjTM3Ec8pr-9" value="&lt;u&gt;Ssn&lt;/u&gt;" style="ellipse;whiteSpace=wrap;html=1;" vertex="1" parent="WIyWlLk6GJQsqaUBKTNV-1">
          <mxGeometry x="10" y="145" width="60" height="40" as="geometry" />
        </mxCell>
        <mxCell id="-NSmCLizPUfjTM3Ec8pr-10" value="Bdate" style="ellipse;whiteSpace=wrap;html=1;" vertex="1" parent="WIyWlLk6GJQsqaUBKTNV-1">
          <mxGeometry x="10" y="85" width="60" height="50" as="geometry" />
        </mxCell>
        <mxCell id="-NSmCLizPUfjTM3Ec8pr-11" value="Salary" style="ellipse;whiteSpace=wrap;html=1;" vertex="1" parent="WIyWlLk6GJQsqaUBKTNV-1">
          <mxGeometry x="310" y="145" width="70" height="40" as="geometry" />
        </mxCell>
        <mxCell id="-NSmCLizPUfjTM3Ec8pr-12" value="Super_ssn" style="ellipse;whiteSpace=wrap;html=1;" vertex="1" parent="WIyWlLk6GJQsqaUBKTNV-1">
          <mxGeometry x="290" y="55" width="90" height="60" as="geometry" />
        </mxCell>
        <mxCell id="-NSmCLizPUfjTM3Ec8pr-13" value="Dno" style="ellipse;whiteSpace=wrap;html=1;" vertex="1" parent="WIyWlLk6GJQsqaUBKTNV-1">
          <mxGeometry x="10" y="205" width="70" height="30" as="geometry" />
        </mxCell>
        <mxCell id="-NSmCLizPUfjTM3Ec8pr-14" value="Minit" style="ellipse;whiteSpace=wrap;html=1;" vertex="1" parent="WIyWlLk6GJQsqaUBKTNV-1">
          <mxGeometry x="140" y="50" width="60" height="50" as="geometry" />
        </mxCell>
        <mxCell id="-NSmCLizPUfjTM3Ec8pr-15" value="Address" style="ellipse;whiteSpace=wrap;html=1;" vertex="1" parent="WIyWlLk6GJQsqaUBKTNV-1">
          <mxGeometry x="200" y="110" width="80" height="50" as="geometry" />
        </mxCell>
        <mxCell id="-NSmCLizPUfjTM3Ec8pr-16" value="Gender" style="ellipse;whiteSpace=wrap;html=1;" vertex="1" parent="WIyWlLk6GJQsqaUBKTNV-1">
          <mxGeometry x="15" y="255" width="60" height="50" as="geometry" />
        </mxCell>
        <mxCell id="-NSmCLizPUfjTM3Ec8pr-17" value="Name" style="ellipse;whiteSpace=wrap;html=1;" vertex="1" parent="WIyWlLk6GJQsqaUBKTNV-1">
          <mxGeometry x="110" y="115" width="60" height="40" as="geometry" />
        </mxCell>
        <mxCell id="-NSmCLizPUfjTM3Ec8pr-18" value="" style="endArrow=none;html=1;rounded=0;exitX=0;exitY=0;exitDx=0;exitDy=0;entryX=0.5;entryY=1;entryDx=0;entryDy=0;" edge="1" parent="WIyWlLk6GJQsqaUBKTNV-1" source="-NSmCLizPUfjTM3Ec8pr-17" target="-NSmCLizPUfjTM3Ec8pr-6">
          <mxGeometry width="50" height="50" relative="1" as="geometry">
            <mxPoint x="400" y="235" as="sourcePoint" />
            <mxPoint x="450" y="185" as="targetPoint" />
          </mxGeometry>
        </mxCell>
        <mxCell id="-NSmCLizPUfjTM3Ec8pr-20" value="" style="endArrow=none;html=1;rounded=0;entryX=0;entryY=1;entryDx=0;entryDy=0;exitX=0.728;exitY=0.07;exitDx=0;exitDy=0;exitPerimeter=0;" edge="1" parent="WIyWlLk6GJQsqaUBKTNV-1" source="-NSmCLizPUfjTM3Ec8pr-17" target="-NSmCLizPUfjTM3Ec8pr-14">
          <mxGeometry width="50" height="50" relative="1" as="geometry">
            <mxPoint x="140" y="135" as="sourcePoint" />
            <mxPoint x="190" y="85" as="targetPoint" />
          </mxGeometry>
        </mxCell>
        <mxCell id="-NSmCLizPUfjTM3Ec8pr-21" value="" style="endArrow=none;html=1;rounded=0;exitX=1;exitY=0.5;exitDx=0;exitDy=0;entryX=0;entryY=1;entryDx=0;entryDy=0;" edge="1" parent="WIyWlLk6GJQsqaUBKTNV-1" source="-NSmCLizPUfjTM3Ec8pr-17" target="-NSmCLizPUfjTM3Ec8pr-7">
          <mxGeometry width="50" height="50" relative="1" as="geometry">
            <mxPoint x="400" y="235" as="sourcePoint" />
            <mxPoint x="450" y="185" as="targetPoint" />
          </mxGeometry>
        </mxCell>
        <mxCell id="-NSmCLizPUfjTM3Ec8pr-23" value="" style="endArrow=none;html=1;rounded=0;exitX=0.715;exitY=-0.055;exitDx=0;exitDy=0;exitPerimeter=0;entryX=0.5;entryY=1;entryDx=0;entryDy=0;" edge="1" parent="WIyWlLk6GJQsqaUBKTNV-1" source="-NSmCLizPUfjTM3Ec8pr-1" target="-NSmCLizPUfjTM3Ec8pr-15">
          <mxGeometry width="50" height="50" relative="1" as="geometry">
            <mxPoint x="400" y="235" as="sourcePoint" />
            <mxPoint x="450" y="185" as="targetPoint" />
          </mxGeometry>
        </mxCell>
        <mxCell id="-NSmCLizPUfjTM3Ec8pr-24" value="" style="endArrow=none;html=1;rounded=0;exitX=0.542;exitY=-0.03;exitDx=0;exitDy=0;exitPerimeter=0;entryX=0.5;entryY=1;entryDx=0;entryDy=0;" edge="1" parent="WIyWlLk6GJQsqaUBKTNV-1" source="-NSmCLizPUfjTM3Ec8pr-1" target="-NSmCLizPUfjTM3Ec8pr-17">
          <mxGeometry width="50" height="50" relative="1" as="geometry">
            <mxPoint x="400" y="235" as="sourcePoint" />
            <mxPoint x="450" y="185" as="targetPoint" />
          </mxGeometry>
        </mxCell>
        <mxCell id="-NSmCLizPUfjTM3Ec8pr-25" value="" style="endArrow=none;html=1;rounded=0;exitX=0.23;exitY=-0.005;exitDx=0;exitDy=0;exitPerimeter=0;entryX=1;entryY=1;entryDx=0;entryDy=0;" edge="1" parent="WIyWlLk6GJQsqaUBKTNV-1" source="-NSmCLizPUfjTM3Ec8pr-1" target="-NSmCLizPUfjTM3Ec8pr-9">
          <mxGeometry width="50" height="50" relative="1" as="geometry">
            <mxPoint x="300" y="235" as="sourcePoint" />
            <mxPoint x="350" y="185" as="targetPoint" />
          </mxGeometry>
        </mxCell>
        <mxCell id="-NSmCLizPUfjTM3Ec8pr-26" value="" style="endArrow=none;html=1;rounded=0;exitX=0.364;exitY=-0.03;exitDx=0;exitDy=0;exitPerimeter=0;entryX=1;entryY=0.5;entryDx=0;entryDy=0;" edge="1" parent="WIyWlLk6GJQsqaUBKTNV-1" source="-NSmCLizPUfjTM3Ec8pr-1" target="-NSmCLizPUfjTM3Ec8pr-10">
          <mxGeometry width="50" height="50" relative="1" as="geometry">
            <mxPoint x="300" y="235" as="sourcePoint" />
            <mxPoint x="350" y="185" as="targetPoint" />
          </mxGeometry>
        </mxCell>
        <mxCell id="-NSmCLizPUfjTM3Ec8pr-27" value="" style="endArrow=none;html=1;rounded=0;exitX=1;exitY=0.5;exitDx=0;exitDy=0;entryX=-0.009;entryY=0.22;entryDx=0;entryDy=0;entryPerimeter=0;" edge="1" parent="WIyWlLk6GJQsqaUBKTNV-1" source="-NSmCLizPUfjTM3Ec8pr-13" target="-NSmCLizPUfjTM3Ec8pr-1">
          <mxGeometry width="50" height="50" relative="1" as="geometry">
            <mxPoint x="300" y="235" as="sourcePoint" />
            <mxPoint x="350" y="185" as="targetPoint" />
          </mxGeometry>
        </mxCell>
        <mxCell id="-NSmCLizPUfjTM3Ec8pr-28" value="" style="endArrow=none;html=1;rounded=0;exitX=0.983;exitY=0.316;exitDx=0;exitDy=0;exitPerimeter=0;entryX=0;entryY=0.5;entryDx=0;entryDy=0;" edge="1" parent="WIyWlLk6GJQsqaUBKTNV-1" source="-NSmCLizPUfjTM3Ec8pr-16" target="-NSmCLizPUfjTM3Ec8pr-1">
          <mxGeometry width="50" height="50" relative="1" as="geometry">
            <mxPoint x="300" y="235" as="sourcePoint" />
            <mxPoint x="350" y="185" as="targetPoint" />
          </mxGeometry>
        </mxCell>
        <mxCell id="-NSmCLizPUfjTM3Ec8pr-29" value="" style="endArrow=none;html=1;rounded=0;exitX=0.773;exitY=-0.03;exitDx=0;exitDy=0;exitPerimeter=0;entryX=0.5;entryY=1;entryDx=0;entryDy=0;" edge="1" parent="WIyWlLk6GJQsqaUBKTNV-1" source="-NSmCLizPUfjTM3Ec8pr-1" target="-NSmCLizPUfjTM3Ec8pr-12">
          <mxGeometry width="50" height="50" relative="1" as="geometry">
            <mxPoint x="300" y="235" as="sourcePoint" />
            <mxPoint x="350" y="185" as="targetPoint" />
          </mxGeometry>
        </mxCell>
        <mxCell id="-NSmCLizPUfjTM3Ec8pr-30" value="" style="endArrow=none;html=1;rounded=0;exitX=0.964;exitY=-0.005;exitDx=0;exitDy=0;exitPerimeter=0;entryX=0;entryY=1;entryDx=0;entryDy=0;" edge="1" parent="WIyWlLk6GJQsqaUBKTNV-1" source="-NSmCLizPUfjTM3Ec8pr-1" target="-NSmCLizPUfjTM3Ec8pr-11">
          <mxGeometry width="50" height="50" relative="1" as="geometry">
            <mxPoint x="300" y="235" as="sourcePoint" />
            <mxPoint x="350" y="185" as="targetPoint" />
          </mxGeometry>
        </mxCell>
        <mxCell id="-NSmCLizPUfjTM3Ec8pr-32" value="1" style="text;html=1;align=center;verticalAlign=middle;resizable=0;points=[];autosize=1;strokeColor=none;fillColor=none;" vertex="1" parent="WIyWlLk6GJQsqaUBKTNV-1">
          <mxGeometry x="510" y="150" width="30" height="30" as="geometry" />
        </mxCell>
        <mxCell id="-NSmCLizPUfjTM3Ec8pr-33" value="N" style="text;html=1;align=center;verticalAlign=middle;resizable=0;points=[];autosize=1;strokeColor=none;fillColor=none;" vertex="1" parent="WIyWlLk6GJQsqaUBKTNV-1">
          <mxGeometry x="380" y="150" width="30" height="30" as="geometry" />
        </mxCell>
        <mxCell id="-NSmCLizPUfjTM3Ec8pr-34" value="MANAGES" style="rhombus;whiteSpace=wrap;html=1;" vertex="1" parent="WIyWlLk6GJQsqaUBKTNV-1">
          <mxGeometry x="400" y="310" width="110" height="110" as="geometry" />
        </mxCell>
        <mxCell id="-NSmCLizPUfjTM3Ec8pr-36" value="" style="shape=link;html=1;rounded=0;entryX=1;entryY=0.5;entryDx=0;entryDy=0;exitX=0;exitY=1;exitDx=0;exitDy=0;" edge="1" parent="WIyWlLk6GJQsqaUBKTNV-1" source="-NSmCLizPUfjTM3Ec8pr-3" target="-NSmCLizPUfjTM3Ec8pr-34">
          <mxGeometry width="100" relative="1" as="geometry">
            <mxPoint x="300" y="260" as="sourcePoint" />
            <mxPoint x="400" y="360" as="targetPoint" />
          </mxGeometry>
        </mxCell>
        <mxCell id="-NSmCLizPUfjTM3Ec8pr-37" value="" style="endArrow=none;html=1;rounded=0;exitX=0.996;exitY=1.025;exitDx=0;exitDy=0;exitPerimeter=0;entryX=0;entryY=0.5;entryDx=0;entryDy=0;" edge="1" parent="WIyWlLk6GJQsqaUBKTNV-1" source="-NSmCLizPUfjTM3Ec8pr-1" target="-NSmCLizPUfjTM3Ec8pr-34">
          <mxGeometry width="50" height="50" relative="1" as="geometry">
            <mxPoint x="360" y="250" as="sourcePoint" />
            <mxPoint x="410" y="200" as="targetPoint" />
          </mxGeometry>
        </mxCell>
        <mxCell id="-NSmCLizPUfjTM3Ec8pr-38" value="1" style="text;html=1;align=center;verticalAlign=middle;resizable=0;points=[];autosize=1;strokeColor=none;fillColor=none;" vertex="1" parent="WIyWlLk6GJQsqaUBKTNV-1">
          <mxGeometry x="384" y="338" width="30" height="30" as="geometry" />
        </mxCell>
        <mxCell id="-NSmCLizPUfjTM3Ec8pr-39" value="1" style="text;html=1;align=center;verticalAlign=middle;resizable=0;points=[];autosize=1;strokeColor=none;fillColor=none;" vertex="1" parent="WIyWlLk6GJQsqaUBKTNV-1">
          <mxGeometry x="495" y="338" width="30" height="30" as="geometry" />
        </mxCell>
        <mxCell id="-NSmCLizPUfjTM3Ec8pr-41" value="&lt;u&gt;Dno&lt;/u&gt;" style="ellipse;whiteSpace=wrap;html=1;" vertex="1" parent="WIyWlLk6GJQsqaUBKTNV-1">
          <mxGeometry x="580" y="125" width="60" height="40" as="geometry" />
        </mxCell>
        <mxCell id="-NSmCLizPUfjTM3Ec8pr-42" value="Dname" style="ellipse;whiteSpace=wrap;html=1;" vertex="1" parent="WIyWlLk6GJQsqaUBKTNV-1">
          <mxGeometry x="630" y="90" width="60" height="30" as="geometry" />
        </mxCell>
        <mxCell id="-NSmCLizPUfjTM3Ec8pr-44" value="Mgr_ssn" style="ellipse;whiteSpace=wrap;html=1;" vertex="1" parent="WIyWlLk6GJQsqaUBKTNV-1">
          <mxGeometry x="700" y="85" width="70" height="40" as="geometry" />
        </mxCell>
        <mxCell id="-NSmCLizPUfjTM3Ec8pr-45" value="Mgr_start_date" style="ellipse;whiteSpace=wrap;html=1;" vertex="1" parent="WIyWlLk6GJQsqaUBKTNV-1">
          <mxGeometry x="720" y="130" width="90" height="40" as="geometry" />
        </mxCell>
        <mxCell id="-NSmCLizPUfjTM3Ec8pr-46" value="" style="endArrow=none;html=1;rounded=0;entryX=0.5;entryY=1;entryDx=0;entryDy=0;exitX=0.25;exitY=0;exitDx=0;exitDy=0;" edge="1" parent="WIyWlLk6GJQsqaUBKTNV-1" source="-NSmCLizPUfjTM3Ec8pr-3" target="-NSmCLizPUfjTM3Ec8pr-41">
          <mxGeometry width="50" height="50" relative="1" as="geometry">
            <mxPoint x="669" y="235" as="sourcePoint" />
            <mxPoint x="410" y="200" as="targetPoint" />
          </mxGeometry>
        </mxCell>
        <mxCell id="-NSmCLizPUfjTM3Ec8pr-47" value="" style="endArrow=none;html=1;rounded=0;entryX=0.5;entryY=1;entryDx=0;entryDy=0;exitX=0.371;exitY=0.05;exitDx=0;exitDy=0;exitPerimeter=0;" edge="1" parent="WIyWlLk6GJQsqaUBKTNV-1" source="-NSmCLizPUfjTM3Ec8pr-3" target="-NSmCLizPUfjTM3Ec8pr-42">
          <mxGeometry width="50" height="50" relative="1" as="geometry">
            <mxPoint x="680" y="240" as="sourcePoint" />
            <mxPoint x="410" y="200" as="targetPoint" />
          </mxGeometry>
        </mxCell>
        <mxCell id="-NSmCLizPUfjTM3Ec8pr-48" value="" style="endArrow=none;html=1;rounded=0;exitX=0;exitY=1;exitDx=0;exitDy=0;entryX=0.5;entryY=0;entryDx=0;entryDy=0;" edge="1" parent="WIyWlLk6GJQsqaUBKTNV-1" source="-NSmCLizPUfjTM3Ec8pr-44" target="-NSmCLizPUfjTM3Ec8pr-3">
          <mxGeometry width="50" height="50" relative="1" as="geometry">
            <mxPoint x="360" y="250" as="sourcePoint" />
            <mxPoint x="410" y="200" as="targetPoint" />
          </mxGeometry>
        </mxCell>
        <mxCell id="-NSmCLizPUfjTM3Ec8pr-49" value="" style="endArrow=none;html=1;rounded=0;exitX=0.75;exitY=0;exitDx=0;exitDy=0;entryX=0.5;entryY=1;entryDx=0;entryDy=0;" edge="1" parent="WIyWlLk6GJQsqaUBKTNV-1" source="-NSmCLizPUfjTM3Ec8pr-3" target="-NSmCLizPUfjTM3Ec8pr-45">
          <mxGeometry width="50" height="50" relative="1" as="geometry">
            <mxPoint x="360" y="250" as="sourcePoint" />
            <mxPoint x="410" y="200" as="targetPoint" />
          </mxGeometry>
        </mxCell>
        <mxCell id="-NSmCLizPUfjTM3Ec8pr-50" value="WORKS_ON" style="rhombus;whiteSpace=wrap;html=1;" vertex="1" parent="WIyWlLk6GJQsqaUBKTNV-1">
          <mxGeometry x="405" y="460" width="105" height="100" as="geometry" />
        </mxCell>
        <mxCell id="-NSmCLizPUfjTM3Ec8pr-51" value="" style="shape=link;html=1;rounded=0;exitX=0.714;exitY=0.992;exitDx=0;exitDy=0;exitPerimeter=0;entryX=0;entryY=0.5;entryDx=0;entryDy=0;" edge="1" parent="WIyWlLk6GJQsqaUBKTNV-1" source="-NSmCLizPUfjTM3Ec8pr-1" target="-NSmCLizPUfjTM3Ec8pr-50">
          <mxGeometry width="100" relative="1" as="geometry">
            <mxPoint x="340" y="560" as="sourcePoint" />
            <mxPoint x="440" y="560" as="targetPoint" />
          </mxGeometry>
        </mxCell>
        <mxCell id="-NSmCLizPUfjTM3Ec8pr-52" value="" style="shape=link;html=1;rounded=0;exitX=1;exitY=0.5;exitDx=0;exitDy=0;entryX=0;entryY=0.5;entryDx=0;entryDy=0;" edge="1" parent="WIyWlLk6GJQsqaUBKTNV-1" source="-NSmCLizPUfjTM3Ec8pr-50" target="-NSmCLizPUfjTM3Ec8pr-53">
          <mxGeometry width="100" relative="1" as="geometry">
            <mxPoint x="340" y="560" as="sourcePoint" />
            <mxPoint x="630" y="510" as="targetPoint" />
          </mxGeometry>
        </mxCell>
        <mxCell id="-NSmCLizPUfjTM3Ec8pr-53" value="PROJECT" style="rounded=0;whiteSpace=wrap;html=1;" vertex="1" parent="WIyWlLk6GJQsqaUBKTNV-1">
          <mxGeometry x="640" y="487.5" width="120" height="45" as="geometry" />
        </mxCell>
        <mxCell id="-NSmCLizPUfjTM3Ec8pr-55" value="CONTROLS" style="rhombus;whiteSpace=wrap;html=1;" vertex="1" parent="WIyWlLk6GJQsqaUBKTNV-1">
          <mxGeometry x="660" y="340" width="80" height="80" as="geometry" />
        </mxCell>
        <mxCell id="-NSmCLizPUfjTM3Ec8pr-56" value="" style="endArrow=none;html=1;rounded=0;exitX=0.5;exitY=0;exitDx=0;exitDy=0;" edge="1" parent="WIyWlLk6GJQsqaUBKTNV-1" source="-NSmCLizPUfjTM3Ec8pr-55" target="-NSmCLizPUfjTM3Ec8pr-3">
          <mxGeometry width="50" height="50" relative="1" as="geometry">
            <mxPoint x="360" y="310" as="sourcePoint" />
            <mxPoint x="410" y="260" as="targetPoint" />
          </mxGeometry>
        </mxCell>
        <mxCell id="-NSmCLizPUfjTM3Ec8pr-57" value="" style="shape=link;html=1;rounded=0;exitX=0.5;exitY=1;exitDx=0;exitDy=0;entryX=0.5;entryY=0;entryDx=0;entryDy=0;" edge="1" parent="WIyWlLk6GJQsqaUBKTNV-1" source="-NSmCLizPUfjTM3Ec8pr-55" target="-NSmCLizPUfjTM3Ec8pr-53">
          <mxGeometry width="100" relative="1" as="geometry">
            <mxPoint x="340" y="290" as="sourcePoint" />
            <mxPoint x="440" y="290" as="targetPoint" />
          </mxGeometry>
        </mxCell>
        <mxCell id="-NSmCLizPUfjTM3Ec8pr-58" value="1" style="text;html=1;align=center;verticalAlign=middle;resizable=0;points=[];autosize=1;strokeColor=none;fillColor=none;" vertex="1" parent="WIyWlLk6GJQsqaUBKTNV-1">
          <mxGeometry x="700" y="328" width="30" height="30" as="geometry" />
        </mxCell>
        <mxCell id="-NSmCLizPUfjTM3Ec8pr-59" value="N" style="text;html=1;align=center;verticalAlign=middle;resizable=0;points=[];autosize=1;strokeColor=none;fillColor=none;" vertex="1" parent="WIyWlLk6GJQsqaUBKTNV-1">
          <mxGeometry x="700" y="410" width="30" height="30" as="geometry" />
        </mxCell>
        <mxCell id="-NSmCLizPUfjTM3Ec8pr-60" value="N" style="text;html=1;align=center;verticalAlign=middle;resizable=0;points=[];autosize=1;strokeColor=none;fillColor=none;" vertex="1" parent="WIyWlLk6GJQsqaUBKTNV-1">
          <mxGeometry x="385" y="508" width="30" height="30" as="geometry" />
        </mxCell>
        <mxCell id="-NSmCLizPUfjTM3Ec8pr-61" value="N" style="text;html=1;align=center;verticalAlign=middle;resizable=0;points=[];autosize=1;strokeColor=none;fillColor=none;" vertex="1" parent="WIyWlLk6GJQsqaUBKTNV-1">
          <mxGeometry x="495" y="508" width="30" height="30" as="geometry" />
        </mxCell>
        <mxCell id="-NSmCLizPUfjTM3Ec8pr-62" value="&lt;u&gt;Pno&lt;/u&gt;" style="ellipse;whiteSpace=wrap;html=1;" vertex="1" parent="WIyWlLk6GJQsqaUBKTNV-1">
          <mxGeometry x="575" y="565" width="55" height="35" as="geometry" />
        </mxCell>
        <mxCell id="-NSmCLizPUfjTM3Ec8pr-63" value="Pname" style="ellipse;whiteSpace=wrap;html=1;" vertex="1" parent="WIyWlLk6GJQsqaUBKTNV-1">
          <mxGeometry x="620" y="600" width="60" height="40" as="geometry" />
        </mxCell>
        <mxCell id="-NSmCLizPUfjTM3Ec8pr-64" value="Location" style="ellipse;whiteSpace=wrap;html=1;" vertex="1" parent="WIyWlLk6GJQsqaUBKTNV-1">
          <mxGeometry x="690" y="600" width="70" height="40" as="geometry" />
        </mxCell>
        <mxCell id="-NSmCLizPUfjTM3Ec8pr-65" value="Dno" style="ellipse;whiteSpace=wrap;html=1;" vertex="1" parent="WIyWlLk6GJQsqaUBKTNV-1">
          <mxGeometry x="750" y="560" width="60" height="40" as="geometry" />
        </mxCell>
        <mxCell id="-NSmCLizPUfjTM3Ec8pr-66" value="" style="endArrow=none;html=1;rounded=0;exitX=1;exitY=0;exitDx=0;exitDy=0;entryX=0.25;entryY=1;entryDx=0;entryDy=0;" edge="1" parent="WIyWlLk6GJQsqaUBKTNV-1" source="-NSmCLizPUfjTM3Ec8pr-62" target="-NSmCLizPUfjTM3Ec8pr-53">
          <mxGeometry width="50" height="50" relative="1" as="geometry">
            <mxPoint x="360" y="560" as="sourcePoint" />
            <mxPoint x="410" y="510" as="targetPoint" />
          </mxGeometry>
        </mxCell>
        <mxCell id="-NSmCLizPUfjTM3Ec8pr-67" value="" style="endArrow=none;html=1;rounded=0;exitX=0.5;exitY=0;exitDx=0;exitDy=0;entryX=0.363;entryY=1.056;entryDx=0;entryDy=0;entryPerimeter=0;" edge="1" parent="WIyWlLk6GJQsqaUBKTNV-1" source="-NSmCLizPUfjTM3Ec8pr-63" target="-NSmCLizPUfjTM3Ec8pr-53">
          <mxGeometry width="50" height="50" relative="1" as="geometry">
            <mxPoint x="360" y="560" as="sourcePoint" />
            <mxPoint x="410" y="510" as="targetPoint" />
          </mxGeometry>
        </mxCell>
        <mxCell id="-NSmCLizPUfjTM3Ec8pr-68" value="" style="endArrow=none;html=1;rounded=0;exitX=0.5;exitY=0;exitDx=0;exitDy=0;entryX=0.5;entryY=1;entryDx=0;entryDy=0;" edge="1" parent="WIyWlLk6GJQsqaUBKTNV-1" source="-NSmCLizPUfjTM3Ec8pr-64" target="-NSmCLizPUfjTM3Ec8pr-53">
          <mxGeometry width="50" height="50" relative="1" as="geometry">
            <mxPoint x="360" y="560" as="sourcePoint" />
            <mxPoint x="410" y="510" as="targetPoint" />
          </mxGeometry>
        </mxCell>
        <mxCell id="-NSmCLizPUfjTM3Ec8pr-69" value="" style="endArrow=none;html=1;rounded=0;exitX=0;exitY=0;exitDx=0;exitDy=0;entryX=0.75;entryY=1;entryDx=0;entryDy=0;" edge="1" parent="WIyWlLk6GJQsqaUBKTNV-1" source="-NSmCLizPUfjTM3Ec8pr-65" target="-NSmCLizPUfjTM3Ec8pr-53">
          <mxGeometry width="50" height="50" relative="1" as="geometry">
            <mxPoint x="360" y="560" as="sourcePoint" />
            <mxPoint x="410" y="510" as="targetPoint" />
          </mxGeometry>
        </mxCell>
        <mxCell id="-NSmCLizPUfjTM3Ec8pr-70" value="DEPENDENTS_OF" style="rhombus;whiteSpace=wrap;html=1;" vertex="1" parent="WIyWlLk6GJQsqaUBKTNV-1">
          <mxGeometry x="372.5" y="660" width="165" height="110" as="geometry" />
        </mxCell>
        <mxCell id="-NSmCLizPUfjTM3Ec8pr-71" value="" style="endArrow=none;html=1;rounded=0;exitX=0.484;exitY=1.017;exitDx=0;exitDy=0;exitPerimeter=0;entryX=0.5;entryY=0;entryDx=0;entryDy=0;" edge="1" parent="WIyWlLk6GJQsqaUBKTNV-1" source="-NSmCLizPUfjTM3Ec8pr-1" target="-NSmCLizPUfjTM3Ec8pr-70">
          <mxGeometry width="50" height="50" relative="1" as="geometry">
            <mxPoint x="370" y="530" as="sourcePoint" />
            <mxPoint x="420" y="480" as="targetPoint" />
          </mxGeometry>
        </mxCell>
        <mxCell id="-NSmCLizPUfjTM3Ec8pr-74" value="DEPENDENT" style="rounded=0;whiteSpace=wrap;html=1;" vertex="1" parent="WIyWlLk6GJQsqaUBKTNV-1">
          <mxGeometry x="395" y="800" width="120" height="40" as="geometry" />
        </mxCell>
        <mxCell id="-NSmCLizPUfjTM3Ec8pr-76" value="1" style="text;html=1;align=center;verticalAlign=middle;resizable=0;points=[];autosize=1;strokeColor=none;fillColor=none;" vertex="1" parent="WIyWlLk6GJQsqaUBKTNV-1">
          <mxGeometry x="445" y="638" width="30" height="30" as="geometry" />
        </mxCell>
        <mxCell id="-NSmCLizPUfjTM3Ec8pr-77" value="N" style="text;html=1;align=center;verticalAlign=middle;resizable=0;points=[];autosize=1;strokeColor=none;fillColor=none;" vertex="1" parent="WIyWlLk6GJQsqaUBKTNV-1">
          <mxGeometry x="460" y="760" width="30" height="30" as="geometry" />
        </mxCell>
        <mxCell id="-NSmCLizPUfjTM3Ec8pr-78" value="" style="shape=link;html=1;rounded=0;exitX=0.5;exitY=1;exitDx=0;exitDy=0;" edge="1" parent="WIyWlLk6GJQsqaUBKTNV-1" source="-NSmCLizPUfjTM3Ec8pr-70">
          <mxGeometry width="100" relative="1" as="geometry">
            <mxPoint x="340" y="930" as="sourcePoint" />
            <mxPoint x="455" y="800" as="targetPoint" />
          </mxGeometry>
        </mxCell>
        <mxCell id="-NSmCLizPUfjTM3Ec8pr-79" value="Essn" style="ellipse;whiteSpace=wrap;html=1;" vertex="1" parent="WIyWlLk6GJQsqaUBKTNV-1">
          <mxGeometry x="475" y="410" width="60" height="30" as="geometry" />
        </mxCell>
        <mxCell id="-NSmCLizPUfjTM3Ec8pr-80" value="Pno" style="ellipse;whiteSpace=wrap;html=1;" vertex="1" parent="WIyWlLk6GJQsqaUBKTNV-1">
          <mxGeometry x="540" y="420" width="50" height="30" as="geometry" />
        </mxCell>
        <mxCell id="-NSmCLizPUfjTM3Ec8pr-81" value="Hours" style="ellipse;whiteSpace=wrap;html=1;" vertex="1" parent="WIyWlLk6GJQsqaUBKTNV-1">
          <mxGeometry x="550" y="457.5" width="50" height="30" as="geometry" />
        </mxCell>
        <mxCell id="-NSmCLizPUfjTM3Ec8pr-82" value="" style="endArrow=none;html=1;rounded=0;exitX=0.655;exitY=0.111;exitDx=0;exitDy=0;exitPerimeter=0;entryX=0.5;entryY=1;entryDx=0;entryDy=0;" edge="1" parent="WIyWlLk6GJQsqaUBKTNV-1" source="-NSmCLizPUfjTM3Ec8pr-50" target="-NSmCLizPUfjTM3Ec8pr-79">
          <mxGeometry width="50" height="50" relative="1" as="geometry">
            <mxPoint x="370" y="570" as="sourcePoint" />
            <mxPoint x="420" y="520" as="targetPoint" />
          </mxGeometry>
        </mxCell>
        <mxCell id="-NSmCLizPUfjTM3Ec8pr-83" value="" style="endArrow=none;html=1;rounded=0;exitX=1;exitY=0;exitDx=0;exitDy=0;entryX=0;entryY=1;entryDx=0;entryDy=0;" edge="1" parent="WIyWlLk6GJQsqaUBKTNV-1" source="-NSmCLizPUfjTM3Ec8pr-50" target="-NSmCLizPUfjTM3Ec8pr-80">
          <mxGeometry width="50" height="50" relative="1" as="geometry">
            <mxPoint x="370" y="500" as="sourcePoint" />
            <mxPoint x="420" y="450" as="targetPoint" />
          </mxGeometry>
        </mxCell>
        <mxCell id="-NSmCLizPUfjTM3Ec8pr-84" value="" style="endArrow=none;html=1;rounded=0;exitX=0.888;exitY=0.377;exitDx=0;exitDy=0;exitPerimeter=0;entryX=0;entryY=0.5;entryDx=0;entryDy=0;" edge="1" parent="WIyWlLk6GJQsqaUBKTNV-1" source="-NSmCLizPUfjTM3Ec8pr-50" target="-NSmCLizPUfjTM3Ec8pr-81">
          <mxGeometry width="50" height="50" relative="1" as="geometry">
            <mxPoint x="370" y="500" as="sourcePoint" />
            <mxPoint x="420" y="450" as="targetPoint" />
          </mxGeometry>
        </mxCell>
        <mxCell id="-NSmCLizPUfjTM3Ec8pr-85" value="Essn" style="ellipse;whiteSpace=wrap;html=1;" vertex="1" parent="WIyWlLk6GJQsqaUBKTNV-1">
          <mxGeometry x="320" y="880" width="60" height="40" as="geometry" />
        </mxCell>
        <mxCell id="-NSmCLizPUfjTM3Ec8pr-86" value="Name" style="ellipse;whiteSpace=wrap;html=1;" vertex="1" parent="WIyWlLk6GJQsqaUBKTNV-1">
          <mxGeometry x="345" y="930" width="60" height="40" as="geometry" />
        </mxCell>
        <mxCell id="-NSmCLizPUfjTM3Ec8pr-87" value="Gender" style="ellipse;whiteSpace=wrap;html=1;" vertex="1" parent="WIyWlLk6GJQsqaUBKTNV-1">
          <mxGeometry x="520" y="880" width="60" height="40" as="geometry" />
        </mxCell>
        <mxCell id="-NSmCLizPUfjTM3Ec8pr-88" value="Relationship" style="ellipse;whiteSpace=wrap;html=1;" vertex="1" parent="WIyWlLk6GJQsqaUBKTNV-1">
          <mxGeometry x="415" y="930" width="80" height="50" as="geometry" />
        </mxCell>
        <mxCell id="-NSmCLizPUfjTM3Ec8pr-89" value="Bdate" style="ellipse;whiteSpace=wrap;html=1;" vertex="1" parent="WIyWlLk6GJQsqaUBKTNV-1">
          <mxGeometry x="505" y="930" width="70" height="40" as="geometry" />
        </mxCell>
        <mxCell id="-NSmCLizPUfjTM3Ec8pr-90" value="" style="endArrow=none;html=1;rounded=0;exitX=0.77;exitY=-0.036;exitDx=0;exitDy=0;exitPerimeter=0;entryX=0.25;entryY=1;entryDx=0;entryDy=0;" edge="1" parent="WIyWlLk6GJQsqaUBKTNV-1" source="-NSmCLizPUfjTM3Ec8pr-85" target="-NSmCLizPUfjTM3Ec8pr-74">
          <mxGeometry width="50" height="50" relative="1" as="geometry">
            <mxPoint x="370" y="870" as="sourcePoint" />
            <mxPoint x="420" y="820" as="targetPoint" />
          </mxGeometry>
        </mxCell>
        <mxCell id="-NSmCLizPUfjTM3Ec8pr-91" value="" style="endArrow=none;html=1;rounded=0;exitX=0.737;exitY=-0.086;exitDx=0;exitDy=0;exitPerimeter=0;entryX=0.36;entryY=1.114;entryDx=0;entryDy=0;entryPerimeter=0;" edge="1" parent="WIyWlLk6GJQsqaUBKTNV-1" source="-NSmCLizPUfjTM3Ec8pr-86" target="-NSmCLizPUfjTM3Ec8pr-74">
          <mxGeometry width="50" height="50" relative="1" as="geometry">
            <mxPoint x="370" y="870" as="sourcePoint" />
            <mxPoint x="420" y="820" as="targetPoint" />
          </mxGeometry>
        </mxCell>
        <mxCell id="-NSmCLizPUfjTM3Ec8pr-92" value="" style="endArrow=none;html=1;rounded=0;exitX=0.5;exitY=0;exitDx=0;exitDy=0;entryX=0.435;entryY=1.089;entryDx=0;entryDy=0;entryPerimeter=0;" edge="1" parent="WIyWlLk6GJQsqaUBKTNV-1" source="-NSmCLizPUfjTM3Ec8pr-88" target="-NSmCLizPUfjTM3Ec8pr-74">
          <mxGeometry width="50" height="50" relative="1" as="geometry">
            <mxPoint x="370" y="870" as="sourcePoint" />
            <mxPoint x="420" y="820" as="targetPoint" />
          </mxGeometry>
        </mxCell>
        <mxCell id="-NSmCLizPUfjTM3Ec8pr-93" value="" style="endArrow=none;html=1;rounded=0;entryX=0.594;entryY=1.064;entryDx=0;entryDy=0;entryPerimeter=0;" edge="1" parent="WIyWlLk6GJQsqaUBKTNV-1" source="-NSmCLizPUfjTM3Ec8pr-89" target="-NSmCLizPUfjTM3Ec8pr-74">
          <mxGeometry width="50" height="50" relative="1" as="geometry">
            <mxPoint x="370" y="870" as="sourcePoint" />
            <mxPoint x="420" y="820" as="targetPoint" />
          </mxGeometry>
        </mxCell>
        <mxCell id="-NSmCLizPUfjTM3Ec8pr-94" value="" style="endArrow=none;html=1;rounded=0;entryX=0.75;entryY=1;entryDx=0;entryDy=0;" edge="1" parent="WIyWlLk6GJQsqaUBKTNV-1" source="-NSmCLizPUfjTM3Ec8pr-87" target="-NSmCLizPUfjTM3Ec8pr-74">
          <mxGeometry width="50" height="50" relative="1" as="geometry">
            <mxPoint x="370" y="870" as="sourcePoint" />
            <mxPoint x="420" y="820" as="targetPoint" />
          </mxGeometry>
        </mxCell>
        <mxCell id="-NSmCLizPUfjTM3Ec8pr-95" value="Location" style="ellipse;whiteSpace=wrap;html=1;" vertex="1" parent="WIyWlLk6GJQsqaUBKTNV-1">
          <mxGeometry x="740" y="200" width="80" height="30" as="geometry" />
        </mxCell>
        <mxCell id="-NSmCLizPUfjTM3Ec8pr-96" value="" style="endArrow=none;html=1;rounded=0;exitX=1;exitY=0.5;exitDx=0;exitDy=0;entryX=0.64;entryY=0.974;entryDx=0;entryDy=0;entryPerimeter=0;" edge="1" parent="WIyWlLk6GJQsqaUBKTNV-1" source="-NSmCLizPUfjTM3Ec8pr-3" target="-NSmCLizPUfjTM3Ec8pr-95">
          <mxGeometry width="50" height="50" relative="1" as="geometry">
            <mxPoint x="370" y="370" as="sourcePoint" />
            <mxPoint x="420" y="320" as="targetPoint" />
          </mxGeometry>
        </mxCell>
        <mxCell id="-NSmCLizPUfjTM3Ec8pr-97" value="" style="shape=link;html=1;rounded=0;exitX=0.408;exitY=1.096;exitDx=0;exitDy=0;exitPerimeter=0;entryX=0;entryY=0.5;entryDx=0;entryDy=0;" edge="1" parent="WIyWlLk6GJQsqaUBKTNV-1" source="-NSmCLizPUfjTM3Ec8pr-32" target="-NSmCLizPUfjTM3Ec8pr-3">
          <mxGeometry width="100" relative="1" as="geometry">
            <mxPoint x="340" y="500" as="sourcePoint" />
            <mxPoint x="440" y="500" as="targetPoint" />
          </mxGeometry>
        </mxCell>
        <mxCell id="-NSmCLizPUfjTM3Ec8pr-98" value="DEPENDENTS_OF" style="rhombus;whiteSpace=wrap;html=1;" vertex="1" parent="WIyWlLk6GJQsqaUBKTNV-1">
          <mxGeometry x="385" y="670" width="140" height="90" as="geometry" />
        </mxCell>
      </root>
    </mxGraphModel>
  </diagram>
</mxfile>
